<svg xmlns="http://www.w3.org/2000/svg" viewBox="0 0 192 192" role="img">
  <defs>
    <linearGradient id="g" x1="0" y1="0" x2="0" y2="1">
      <stop offset="0%" stop-color="#4a9eff" />
      <stop offset="100%" stop-color="#22d67c" />
    </linearGradient>
  </defs>
  <rect width="192" height="192" rx="34" fill="#0b1522" />
  <path d="M96 38c29 0 48 13 48 13s3 49-6 67c-9 18-26 28-42 37-16-9-33-19-42-37-9-18-6-67-6-67s19-13 48-13z" fill="url(#g)" stroke="rgba(255,255,255,0.18)" stroke-width="4" />
  <path d="M96 48c22 0 37 9 37 9s2 40-5 55c-7 15-20 23-32 30-12-7-25-15-32-30-7-15-5-55-5-55s15-9 37-9z" fill="rgba(255,255,255,0.18)" />
</svg>
